<svg width="80" height="80" viewBox="0 0 80 80" fill="none" xmlns="http://www.w3.org/2000/svg">
<rect width="80" height="80" rx="40" fill="black"/>
<mask id="mask0_3_45" style="mask-type:alpha" maskUnits="userSpaceOnUse" x="22" y="22" width="36" height="36">
<rect x="22" y="22" width="36" height="36" fill="#D9D9D9"/>
</mask>
<g mask="url(#mask0_3_45)">
<path d="M51.925 53.5C48.8 53.5 45.7125 52.8188 42.6625 51.4563C39.6125 50.0938 36.8375 48.1625 34.3375 45.6625C31.8375 43.1625 29.9062 40.3875 28.5438 37.3375C27.1813 34.2875 26.5 31.2 26.5 28.075C26.5 27.625 26.65 27.25 26.95 26.95C27.25 26.65 27.625 26.5 28.075 26.5H34.15C34.5 26.5 34.8125 26.6187 35.0875 26.8562C35.3625 27.0938 35.525 27.375 35.575 27.7L36.55 32.95C36.6 33.35 36.5875 33.6875 36.5125 33.9625C36.4375 34.2375 36.3 34.475 36.1 34.675L32.4625 38.35C32.9625 39.275 33.5562 40.1687 34.2437 41.0312C34.9312 41.8938 35.6875 42.725 36.5125 43.525C37.2875 44.3 38.1 45.0188 38.95 45.6813C39.8 46.3438 40.7 46.95 41.65 47.5L45.175 43.975C45.4 43.75 45.6938 43.5812 46.0563 43.4688C46.4188 43.3563 46.775 43.325 47.125 43.375L52.3 44.425C52.65 44.525 52.9375 44.7062 53.1625 44.9688C53.3875 45.2313 53.5 45.525 53.5 45.85V51.925C53.5 52.375 53.35 52.75 53.05 53.05C52.75 53.35 52.375 53.5 51.925 53.5ZM31.0375 35.5L33.5125 33.025L32.875 29.5H29.5375C29.6625 30.525 29.8375 31.5375 30.0625 32.5375C30.2875 33.5375 30.6125 34.525 31.0375 35.5ZM44.4625 48.925C45.4375 49.35 46.4313 49.6875 47.4438 49.9375C48.4563 50.1875 49.475 50.35 50.5 50.425V47.125L46.975 46.4125L44.4625 48.925Z" fill="white"/>
</g>
</svg>
