<svg width="80" height="80" viewBox="0 0 80 80" fill="none" xmlns="http://www.w3.org/2000/svg">
<rect width="80" height="80" rx="40" fill="black"/>
<mask id="mask0_3_53" style="mask-type:alpha" maskUnits="userSpaceOnUse" x="22" y="22" width="36" height="36">
<rect x="22" y="22" width="36" height="36" fill="#D9D9D9"/>
</mask>
<g mask="url(#mask0_3_53)">
<path d="M40 46.7125C42.475 44.7125 44.3438 42.7875 45.6063 40.9375C46.8687 39.0875 47.5 37.35 47.5 35.725C47.5 34.325 47.2437 33.1313 46.7313 32.1438C46.2188 31.1563 45.5875 30.3563 44.8375 29.7438C44.0875 29.1313 43.275 28.6875 42.4 28.4125C41.525 28.1375 40.725 28 40 28C39.275 28 38.475 28.1375 37.6 28.4125C36.725 28.6875 35.9125 29.1313 35.1625 29.7438C34.4125 30.3563 33.7812 31.1563 33.2688 32.1438C32.7563 33.1313 32.5 34.325 32.5 35.725C32.5 37.35 33.1312 39.0875 34.3938 40.9375C35.6562 42.7875 37.525 44.7125 40 46.7125ZM40 50.5C36.475 47.9 33.8438 45.375 32.1063 42.925C30.3688 40.475 29.5 38.075 29.5 35.725C29.5 33.95 29.8187 32.3937 30.4562 31.0562C31.0938 29.7188 31.9125 28.6 32.9125 27.7C33.9125 26.8 35.0375 26.125 36.2875 25.675C37.5375 25.225 38.775 25 40 25C41.225 25 42.4625 25.225 43.7125 25.675C44.9625 26.125 46.0875 26.8 47.0875 27.7C48.0875 28.6 48.9062 29.7188 49.5438 31.0562C50.1812 32.3937 50.5 33.95 50.5 35.725C50.5 38.075 49.6313 40.475 47.8937 42.925C46.1562 45.375 43.525 47.9 40 50.5ZM40 38.5C40.825 38.5 41.5313 38.2063 42.1188 37.6188C42.7063 37.0313 43 36.325 43 35.5C43 34.675 42.7063 33.9688 42.1188 33.3813C41.5313 32.7938 40.825 32.5 40 32.5C39.175 32.5 38.4688 32.7938 37.8813 33.3813C37.2938 33.9688 37 34.675 37 35.5C37 36.325 37.2938 37.0313 37.8813 37.6188C38.4688 38.2063 39.175 38.5 40 38.5ZM29.5 55V52H50.5V55H29.5Z" fill="white"/>
</g>
</svg>
